# xmcd CD database file
#
# Track frame offsets:
#	150
#	15790
#	29895
#	45971
#	68004
#	83345
#	97429
#	114974
#	143173
#	161533
#	175581
#	188427
#
# Disc length: 2584 seconds
#
# Revision: 0
# Processed by: cddbd v1.5.2PL0 Copyright (c) Steve Scherf et al.
# Submitted via: CDex 1.51
#
DISCID=860a160c
DTITLE=Zen-Zen The Zarapen - Spice Is Life
DYEAR=2004
DGENRE=New Age
TTITLE0=Beginnings
TTITLE1=End Of The Road
TTITLE2=This Is Not The Ending
TTITLE3=The Sentence
TTITLE4=Crush On You
TTITLE5=Everyday Blues
TTITLE6=Water, Water
TTITLE7=Sunshine
TTITLE8=Road To Nowhere
TTITLE9=Nancy Jo Strut
TTITLE10=Time And Time Again
TTITLE11=Simple Song
EXTD=YEAR: 2004
EXTT0=
EXTT1=
EXTT2=
EXTT3=
EXTT4=
EXTT5=
EXTT6=
EXTT7=
EXTT8=
EXTT9=
EXTT10=
EXTT11=
PLAYORDER=
